<?xml version="1.0" encoding="UTF-8"?>
<svg id="Layer_1" xmlns="http://www.w3.org/2000/svg" version="1.1" viewBox="0 0 1000 275">
  <!-- Generator: Adobe Illustrator 29.8.3, SVG Export Plug-In . SVG Version: 2.1.1 Build 3)  -->
  <defs>
    <style>
      .st0 {
        fill: #fff;
      }

      .st1 {
        fill: #00b0e5;
      }

      .st2 {
        fill: #094879;
      }

      .st3 {
        fill: #f37522;
      }
    </style>
  </defs>
  <g>
    <path class="st2" d="M296.17,53.81v-13.88h51.01v13.88h-17.42v53.12h-16.17v-53.12h-17.42Z"/>
    <path class="st2" d="M395.13,39.93v13.88h-24.98v12.25h19.81v13.69h-19.81v13.3h24.98v13.88h-41.15V39.93h41.15Z"/>
    <path class="st2" d="M399.25,73.81c0-5.29.64-10.08,1.91-14.36,1.28-4.27,3.16-7.93,5.65-10.96,2.49-3.03,5.55-5.36,9.19-6.99,3.64-1.63,7.81-2.44,12.54-2.44,2.87,0,5.42.27,7.66.82,2.23.55,4.21,1.29,5.93,2.22,1.72.93,3.27,2.02,4.64,3.28,1.37,1.25,2.63,2.59,3.78,4l-8.33,10.26c-.89-.88-1.77-1.73-2.63-2.55s-1.8-1.53-2.82-2.12c-1.02-.6-2.14-1.09-3.35-1.46-1.21-.38-2.58-.57-4.12-.57-2.43,0-4.48.56-6.17,1.67-1.69,1.11-3.1,2.63-4.21,4.54-1.12,1.91-1.93,4.14-2.44,6.68-.51,2.55-.77,5.22-.77,8.02,0,6.68,1.24,11.73,3.73,15.14,2.49,3.41,5.84,5.11,10.05,5.11,3.06,0,5.66-.67,7.8-2.01,2.14-1.34,4.23-3.13,6.27-5.36l7.75,9.95c-2.49,3.19-5.71,5.84-9.67,7.94-3.96,2.11-8.33,3.16-13.11,3.16-9.32,0-16.53-2.74-21.63-8.23-5.11-5.49-7.66-14.07-7.66-25.75Z"/>
    <path class="st2" d="M475.05,39.93v24.88h19.62v-24.88h16.17v66.99h-16.17v-27.47h-19.62v27.47h-16.17V39.93h16.17Z"/>
    <path class="st2" d="M635.93,39.93c4.08,0,7.96.46,11.63,1.39,3.67.93,6.91,2.63,9.71,5.12,2.81,2.49,5.04,5.89,6.7,10.19,1.66,4.31,2.49,9.84,2.49,16.6,0,5.81-.86,10.83-2.58,15.07-1.72,4.24-4.04,7.74-6.94,10.48-2.9,2.74-6.24,4.79-10,6.13s-7.69,2.01-11.77,2.01h-20.58V39.93h21.34ZM634.21,93.24c5.17,0,9.09-1.69,11.77-5.07,2.68-3.38,4.02-8.29,4.02-14.74,0-3.7-.29-6.81-.86-9.33-.57-2.52-1.48-4.56-2.73-6.13-1.24-1.56-2.82-2.68-4.74-3.35s-4.18-1-6.79-1h-4.21v39.62h3.54Z"/>
    <path class="st2" d="M715.75,39.93v13.88h-24.98v12.25h19.81v13.69h-19.81v13.3h24.98v13.88h-41.15V39.93h41.15Z"/>
    <path class="st2" d="M744.75,39.93l8.9,27.56c.38,1.28.73,2.63,1.05,4.07s.64,2.95.96,4.55h.77c.25-1.53.56-3.08.91-4.64.35-1.56.72-2.92,1.1-4.07l8.9-27.47h17.51l4.79,66.99h-16.17l-1.91-29.96c-.06-.64-.11-1.48-.14-2.54-.03-1.05-.06-2.15-.1-3.3-.03-1.15-.05-2.26-.05-3.35v-2.68h-.77l-8.61,28.52h-11.96l-8.61-28.52h-.86c0,.57-.02,1.37-.05,2.39-.03,1.02-.05,2.11-.05,3.25s-.02,2.3-.05,3.45c-.03,1.15-.08,2.11-.14,2.87l-1.82,29.86h-15.7l4.69-66.99h17.42Z"/>
    <path class="st2" d="M834.42,39.93l22.39,66.99h-16.75l-5.07-14.93h-19.43l-4.69,14.93h-15.89l22.2-66.99h17.23ZM827.53,63.19c-.32-1.02-.64-2.26-.96-3.73-.32-1.47-.57-2.84-.77-4.12h-.77c-.32,1.21-.66,2.55-1,4.02-.35,1.47-.66,2.71-.91,3.73l-4.02,15.03h12.15l-3.73-14.93Z"/>
    <path class="st2" d="M880.27,39.93l15.7,30.53c.25.51.54,1.15.86,1.91.32.77.65,1.58,1,2.44.35.86.7,1.72,1.05,2.58.35.86.68,1.67,1,2.44h.77c-.13-1.79-.26-3.7-.38-5.74-.13-2.04-.19-3.67-.19-4.88v-29.29h14.93v66.99h-15.22l-18.47-35.6c-.57-1.15-1.2-2.52-1.87-4.12-.67-1.59-1.29-3.13-1.87-4.59h-.77c.06.64.14,1.5.24,2.58.1,1.09.19,2.25.29,3.49s.19,2.47.29,3.68c.1,1.21.14,2.2.14,2.97v31.58h-14.93V39.93h17.42Z"/>
    <path class="st2" d="M947.07,39.93c4.08,0,7.96.46,11.63,1.39,3.67.93,6.91,2.63,9.71,5.12,2.81,2.49,5.04,5.89,6.7,10.19,1.66,4.31,2.49,9.84,2.49,16.6,0,5.81-.86,10.83-2.58,15.07-1.72,4.24-4.04,7.74-6.94,10.48-2.9,2.74-6.24,4.79-10,6.13s-7.69,2.01-11.77,2.01h-20.58V39.93h21.34ZM945.35,93.24c5.17,0,9.09-1.69,11.77-5.07,2.68-3.38,4.02-8.29,4.02-14.74,0-3.7-.29-6.81-.86-9.33-.57-2.52-1.48-4.56-2.73-6.13-1.24-1.56-2.82-2.68-4.74-3.35s-4.18-1-6.79-1h-4.21v39.62h3.54Z"/>
  </g>
  <rect class="st3" x="523.26" y="30.39" width="82.27" height="82.27" rx="3.05" ry="3.05"/>
  <path class="st0" d="M589.84,100.08h-51.14v-17.55c0-2.26.13-4.04.41-5.33.27-1.29.57-2.36.89-3.19.32-.84.92-1.81,1.78-2.91.86-1.1,2.53-2.32,4.98-3.64,2.46-1.32,6.74-1.98,12.84-1.98h9.97c2,0,3.59-.58,4.78-1.75,1.19-1.17,1.78-2.7,1.78-4.61v-1.55c-.27-1.74-.81-2.99-1.62-3.75-.76-.87-1.79-1.4-3.09-1.59-1.3-.19-2.9-.29-4.79-.29h-27.94v-10.13h33.39c4.65,0,8.13.7,10.45,2.11,1.24.54,2.34,1.34,3.28,2.39.95,1.05,1.71,2.15,2.31,3.28.22.6.43,1.2.65,1.82.22.62.45,1.47.69,2.55.24,1.08.36,2.32.36,3.73v1.3c0,2.7-.38,5.09-1.13,7.17-.75,2.08-1.85,3.84-3.28,5.27-1.43,1.43-3.3,2.53-5.62,3.28-2.32.76-4.8,1.13-7.44,1.13h-11c-2.91,0-5.04.43-6.39,1.3-1.35.86-2.21,1.99-2.59,3.36-.38,1.38-.57,3.39-.57,6.04v3.57h38.01v9.97Z"/>
  <g>
    <path class="st1" d="M330.87,184.47c-7.42,0-13.35-.29-17.8-.88-4.45-.59-7.86-1.81-10.24-3.67-2.38-1.86-3.94-4.5-4.68-7.94s-1.11-7.97-1.11-13.6v-1.49c0-3.78.15-7.06.46-9.84.31-2.79.91-5.14,1.81-7.06.9-1.92,2.12-3.48,3.66-4.69,1.54-1.21,3.57-2.15,6.07-2.83,2.5-.68,5.55-1.13,9.13-1.35,3.58-.22,7.82-.33,12.7-.33h2.41c6.18,0,11.2.22,15.06.65,3.86.43,6.89,1.25,9.08,2.46,2.19,1.21,3.69,2.91,4.5,5.1.8,2.19,1.21,5.02,1.21,8.48v2.04h-15.14v-.64c0-1.16-.19-2.15-.56-2.97-.37-.82-1.12-1.46-2.23-1.92-1.12-.46-2.68-.79-4.69-1.01-2.01-.21-4.63-.32-7.85-.32h-1.3c-4.46,0-7.96.12-10.5.37-2.54.25-4.43.87-5.66,1.85-1.24.99-2.01,2.46-2.32,4.4-.31,1.95-.46,4.59-.46,7.93v.93c0,3.28.15,5.86.46,7.74.31,1.89,1.08,3.32,2.32,4.31,1.24.99,3.13,1.61,5.67,1.85,2.54.25,6.04.37,10.5.37h1.3c3.59,0,6.46-.09,8.59-.28s3.76-.54,4.88-1.07c1.12-.52,1.83-1.22,2.14-2.08.31-.87.46-2.01.46-3.43v-1.39h-20.39v-10.2h35.32v11.68c0,3.83-.4,6.95-1.21,9.36-.8,2.41-2.32,4.33-4.54,5.75-2.22,1.42-5.32,2.4-9.27,2.92-3.96.52-9.08.79-15.39.79h-2.41Z"/>
    <path class="st1" d="M477.51,183.82h-50.98v-52.28h15.57v40.14h35.41v12.14Z"/>
    <path class="st1" d="M568.54,184.47c-5,0-9.32-.11-12.93-.32-3.62-.22-6.69-.65-9.22-1.3-2.53-.65-4.59-1.56-6.16-2.73-1.58-1.17-2.8-2.72-3.66-4.63-.87-1.92-1.45-4.26-1.76-7.04-.31-2.78-.46-6.12-.46-10.01v-1.48c0-3.89.15-7.23.46-10.01.31-2.78.9-5.14,1.76-7.09.86-1.95,2.08-3.51,3.66-4.68,1.58-1.17,3.63-2.07,6.16-2.69,2.53-.62,5.61-1.03,9.22-1.25,3.62-.22,7.93-.32,12.93-.32h2.41c5.01,0,9.32.11,12.93.32,3.62.22,6.69.63,9.22,1.25,2.53.62,4.59,1.52,6.16,2.69,1.58,1.17,2.79,2.73,3.66,4.68.87,1.95,1.45,4.31,1.76,7.09.31,2.78.46,6.12.46,10.01v1.48c0,3.89-.15,7.23-.46,10.01-.31,2.78-.9,5.14-1.76,7.09-.87,1.95-2.09,3.51-3.66,4.68-1.58,1.17-3.63,2.07-6.16,2.69-2.54.62-5.61,1.03-9.22,1.25-3.62.22-7.93.32-12.93.32h-2.41ZM570.39,172.33c4.51,0,8.05-.12,10.61-.37,2.56-.25,4.48-.85,5.75-1.81,1.27-.96,2.04-2.39,2.32-4.31.28-1.91.42-4.51.42-7.79v-.83c0-3.34-.14-5.98-.42-7.93-.28-1.95-1.05-3.4-2.32-4.36s-3.18-1.56-5.75-1.81c-2.56-.25-6.1-.37-10.61-.37h-1.3c-4.57,0-8.13.12-10.66.37-2.54.25-4.43.85-5.7,1.81s-2.04,2.41-2.32,4.36c-.28,1.95-.42,4.59-.42,7.93v.83c0,3.28.14,5.87.42,7.79.28,1.92,1.05,3.35,2.32,4.31,1.27.96,3.17,1.56,5.7,1.81,2.53.25,6.09.37,10.66.37h1.3Z"/>
    <path class="st1" d="M668,183.82v-52.28h42.55c4.02,0,7.37.22,10.06.65,2.69.43,4.83,1.16,6.44,2.18,1.61,1.02,2.75,2.36,3.43,4.03.68,1.67,1.02,3.74,1.02,6.21,0,3.65-.65,6.37-1.95,8.16-1.3,1.79-3.09,3.03-5.38,3.71v.19c2.9.5,5.13,1.7,6.67,3.62,1.54,1.92,2.32,4.73,2.32,8.44,0,2.97-.37,5.42-1.11,7.37s-1.89,3.49-3.43,4.63c-1.55,1.14-3.49,1.95-5.84,2.41-2.35.46-5.13.7-8.34.7h-46.44ZM711.38,152.12c1.61,0,2.86-.34,3.75-1.02.89-.68,1.34-1.95,1.34-3.8,0-1.98-.45-3.31-1.34-3.99-.9-.68-2.15-1.02-3.75-1.02h-28v9.83h28ZM711.75,172.6c2.35,0,3.97-.44,4.87-1.33.89-.89,1.34-2.22,1.34-4s-.45-3.15-1.34-3.95c-.9-.8-2.52-1.2-4.87-1.2h-28.37v10.48h28.37Z"/>
    <path class="st1" d="M866.09,183.82h-16.78l-4.82-9.36h-33l-4.73,9.36h-16.69l28.46-52.28h19l28.55,52.28ZM838.93,163.52l-10.85-21.04h-.37l-10.66,21.04h21.88Z"/>
    <path class="st1" d="M976.12,183.82h-50.98v-52.28h15.57v40.14h35.41v12.14Z"/>
  </g>
  <g>
    <path class="st2" d="M308.65,230.37h-2.79c-.5,0-.74-.25-.74-.74v-9.64l-8.16-16.88c-.12-.23-.12-.42,0-.57.12-.15.28-.22.48-.22h3.49c.38,0,.67.25.87.74l5.37,12h.26l5.28-12c.17-.49.46-.74.87-.74h3.49c.23,0,.4.07.5.22.1.15.09.33-.02.57l-8.16,16.88v9.64c0,.49-.25.74-.74.74Z"/>
    <path class="st2" d="M334.47,230.37h-3.84c-2.15,0-3.82-.6-4.99-1.79s-1.77-2.85-1.77-4.97v-8.72c0-2.15.59-3.82,1.77-5s2.84-1.77,4.99-1.77h3.84c2.12,0,3.79.59,4.99,1.77,1.21,1.18,1.81,2.84,1.81,5v8.72c0,2.12-.6,3.78-1.81,4.97-1.21,1.19-2.87,1.79-4.99,1.79ZM331.24,226.66h2.66c2.09,0,3.14-1.06,3.14-3.18v-8.46c0-2.12-1.05-3.18-3.14-3.18h-2.66c-1.11,0-1.91.25-2.4.76-.49.51-.74,1.32-.74,2.42v8.46c0,1.11.25,1.91.74,2.42.49.51,1.29.76,2.4.76Z"/>
    <path class="st2" d="M357.77,230.37h-1.96c-2.09,0-3.7-.59-4.82-1.77-1.12-1.18-1.68-2.84-1.68-5v-14.74c0-.49.25-.74.74-.74h2.75c.49,0,.74.25.74.74v14.57c0,2.15,1.05,3.23,3.14,3.23h2.09c2.38,0,3.58-1.24,3.58-3.71v-14.09c0-.49.25-.74.74-.74h2.75c.52,0,.79.25.79.74v20.76c0,.49-.26.74-.79.74h-2.75c-.5,0-.74-.25-.74-.74v-1.57h-.17c-.7,1.54-2.17,2.31-4.41,2.31Z"/>
    <path class="st2" d="M378.79,230.37h-2.75c-.5,0-.74-.25-.74-.74v-20.76c0-.49.25-.74.74-.74h2.75c.49,0,.74.25.74.74v1.66h.17c.29-.73.85-1.31,1.68-1.75.83-.44,1.75-.65,2.77-.65h1.61c.49,0,.74.25.74.74v2.27c0,.55-.25.79-.74.7h-2.62c-2.41,0-3.62,1.32-3.62,3.97v13.83c0,.49-.25.74-.74.74Z"/>
    <path class="st2" d="M414.86,229.28h-1.96c-2.09,0-3.7-.59-4.82-1.77-1.12-1.18-1.68-2.84-1.68-4.99v-7.63c0-2.15.6-3.82,1.79-5,1.19-1.18,2.85-1.77,4.97-1.77h9.77c.52,0,.79.25.79.74v21.59c0,2.12-.6,3.77-1.81,4.95-1.21,1.18-2.87,1.77-4.99,1.77h-8.2c-.49,0-.74-.23-.74-.7v-2.27c0-.5.25-.74.74-.74h7.55c2.12,0,3.18-1.08,3.18-3.23v-3.32h-.17c-.73,1.57-2.2,2.36-4.41,2.36ZM419.44,221.86v-9.6c0-.29-.16-.44-.48-.44h-5.19c-2.06,0-3.1,1.08-3.1,3.23v7.24c0,2.15,1.03,3.23,3.1,3.23h2.09c2.38,0,3.58-1.22,3.58-3.66Z"/>
    <path class="st2" d="M435.89,230.37h-2.75c-.5,0-.74-.25-.74-.74v-20.76c0-.49.25-.74.74-.74h2.75c.49,0,.74.25.74.74v1.66h.17c.29-.73.85-1.31,1.68-1.75.83-.44,1.75-.65,2.77-.65h1.61c.49,0,.74.25.74.74v2.27c0,.55-.25.79-.74.7h-2.62c-2.41,0-3.62,1.32-3.62,3.97v13.83c0,.49-.25.74-.74.74Z"/>
    <path class="st2" d="M460.4,230.37h-3.84c-2.15,0-3.82-.6-4.99-1.79s-1.77-2.85-1.77-4.97v-8.72c0-2.15.59-3.82,1.77-5s2.84-1.77,4.99-1.77h3.84c2.12,0,3.79.59,4.99,1.77,1.21,1.18,1.81,2.84,1.81,5v8.72c0,2.12-.6,3.78-1.81,4.97-1.21,1.19-2.87,1.79-4.99,1.79ZM457.18,226.66h2.66c2.09,0,3.14-1.06,3.14-3.18v-8.46c0-2.12-1.05-3.18-3.14-3.18h-2.66c-1.11,0-1.91.25-2.4.76-.49.51-.74,1.32-.74,2.42v8.46c0,1.11.25,1.91.74,2.42.49.51,1.29.76,2.4.76Z"/>
    <path class="st2" d="M483.26,230.37h-3.75c-.44,0-.73-.25-.87-.74l-5.02-20.76c-.12-.49.06-.74.52-.74h3.14c.52,0,.81.25.87.74l3.18,16.49h.31l3.84-16.49c.09-.49.36-.74.83-.74h2.88c.49,0,.8.25.92.74l3.75,16.49h.31l3.18-16.49c.09-.49.38-.74.87-.74h3.14c.49,0,.67.25.52.74l-5.02,20.76c-.09.49-.38.74-.87.74h-3.75c-.47,0-.76-.25-.87-.74l-3.49-16.18h-.31l-3.45,16.18c-.09.49-.38.74-.87.74Z"/>
    <path class="st2" d="M509.48,211.83h-2.09c-.29,0-.49-.05-.59-.15s-.15-.28-.15-.55v-2.27c0-.49.25-.74.74-.74h2.09c.29,0,.44-.14.44-.44v-3.93c0-.49.26-.74.79-.74h2.75c.49,0,.74.25.74.74v3.93c0,.29.16.44.48.44h4.06c.52,0,.79.25.79.74v2.27c0,.47-.26.7-.79.7h-4.06c-.32,0-.48.15-.48.44v11.21c0,2.12,1.09,3.18,3.27,3.18h1.7c.52,0,.79.25.79.74v2.27c0,.47-.26.7-.79.7h-2.36c-2.15,0-3.84-.58-5.06-1.75-1.22-1.16-1.83-2.81-1.83-4.93v-11.43c0-.29-.15-.44-.44-.44Z"/>
    <path class="st2" d="M530.85,230.37h-2.75c-.49,0-.74-.25-.74-.74v-29.18c0-.49.25-.74.74-.74h2.75c.49,0,.74.25.74.74v9.99h.17c.7-1.54,2.17-2.31,4.41-2.31h1.92c2.12,0,3.75.58,4.89,1.75,1.13,1.16,1.7,2.83,1.7,5.02v14.74c0,.49-.26.74-.79.74h-2.75c-.49,0-.74-.25-.74-.74v-14.57c0-2.15-1.06-3.23-3.18-3.23h-2.05c-2.38,0-3.58,1.24-3.58,3.71v14.09c0,.49-.25.74-.74.74Z"/>
    <path class="st2" d="M566.97,204.41v-3.97c0-.46.23-.7.7-.7h2.84c.46,0,.7.23.7.7v3.97c0,.5-.23.74-.7.74h-2.84c-.47,0-.7-.25-.7-.74ZM566.97,229.63v-20.76c0-.49.23-.74.7-.74h2.79c.49,0,.74.25.74.74v20.76c0,.29-.05.49-.15.59-.1.1-.28.15-.54.15h-2.79c-.5,0-.74-.25-.74-.74Z"/>
    <path class="st2" d="M588.08,230.37h-8.03c-.5,0-.74-.25-.74-.74v-2.14c0-.46.25-.7.74-.7h7.33c1.89,0,2.83-.65,2.83-1.96v-.52c0-1.16-.68-2.05-2.05-2.66l-4.75-2.27c-1.48-.7-2.56-1.47-3.23-2.31-.67-.84-1-1.95-1-3.32,0-3.75,2.08-5.63,6.24-5.63h7.24c.46,0,.7.25.7.74v2.14c0,.5-.23.74-.7.74h-6.37c-.87,0-1.54.15-2.01.46-.47.3-.7.71-.7,1.2v.48c0,.93.74,1.75,2.22,2.44l4.8,2.44c1.51.67,2.55,1.46,3.12,2.38.57.92.85,2.1.85,3.55,0,3.78-2.17,5.67-6.5,5.67Z"/>
    <path class="st2" d="M626.12,230.37h-3.84c-2.15,0-3.82-.6-5-1.79-1.18-1.19-1.77-2.85-1.77-4.97v-8.72c0-2.15.59-3.82,1.77-5,1.18-1.18,2.84-1.77,5-1.77h3.84c2.12,0,3.79.59,4.99,1.77s1.81,2.84,1.81,5v8.72c0,2.12-.6,3.78-1.81,4.97s-2.87,1.79-4.99,1.79ZM622.89,226.66h2.66c2.09,0,3.14-1.06,3.14-3.18v-8.46c0-2.12-1.05-3.18-3.14-3.18h-2.66c-1.11,0-1.9.25-2.4.76-.5.51-.74,1.32-.74,2.42v8.46c0,1.11.25,1.91.74,2.42.49.51,1.29.76,2.4.76Z"/>
    <path class="st2" d="M649.41,230.37h-1.96c-2.09,0-3.7-.59-4.82-1.77s-1.68-2.84-1.68-5v-14.74c0-.49.25-.74.74-.74h2.75c.49,0,.74.25.74.74v14.57c0,2.15,1.05,3.23,3.14,3.23h2.09c2.38,0,3.58-1.24,3.58-3.71v-14.09c0-.49.25-.74.74-.74h2.75c.52,0,.79.25.79.74v20.76c0,.49-.26.74-.79.74h-2.75c-.5,0-.74-.25-.74-.74v-1.57h-.17c-.7,1.54-2.17,2.31-4.41,2.31Z"/>
    <path class="st2" d="M670.44,230.37h-2.75c-.49,0-.74-.25-.74-.74v-20.76c0-.49.25-.74.74-.74h2.75c.49,0,.74.25.74.74v1.66h.17c.29-.73.85-1.31,1.68-1.75.83-.44,1.75-.65,2.77-.65h1.61c.49,0,.74.25.74.74v2.27c0,.55-.25.79-.74.7h-2.62c-2.41,0-3.62,1.32-3.62,3.97v13.83c0,.49-.25.74-.74.74Z"/>
    <path class="st2" d="M701.89,230.37h-2.75c-.49,0-.74-.25-.74-.74v-20.76c0-.49.25-.74.74-.74h2.75c.49,0,.74.25.74.74v1.66h.17c.29-.73.85-1.31,1.68-1.75.83-.44,1.75-.65,2.77-.65h1.61c.49,0,.74.25.74.74v2.27c0,.55-.25.79-.74.7h-2.62c-2.41,0-3.62,1.32-3.62,3.97v13.83c0,.49-.25.74-.74.74Z"/>
    <path class="st2" d="M731.99,230.37h-9.42c-2.15,0-3.82-.6-5-1.79-1.18-1.19-1.77-2.85-1.77-4.97v-8.72c0-2.15.59-3.82,1.77-5,1.18-1.18,2.84-1.77,5-1.77h3.58c2.15,0,3.82.59,5.02,1.77,1.19,1.18,1.79,2.84,1.79,5v5.54c0,.52-.26.79-.79.79h-11.69c-.32,0-.48.15-.48.44v1.88c0,2.12,1.06,3.18,3.18,3.18h8.81c.52,0,.79.26.79.79v2.18c0,.47-.26.7-.79.7ZM720.47,218.24h7.81c.29,0,.44-.14.44-.44v-2.79c0-1.11-.25-1.91-.74-2.42-.5-.51-1.29-.76-2.4-.76h-2.4c-1.11,0-1.9.25-2.4.76-.5.51-.74,1.32-.74,2.42v2.79c0,.29.15.44.44.44Z"/>
    <path class="st2" d="M748.91,230.37h-8.03c-.5,0-.74-.25-.74-.74v-2.14c0-.46.25-.7.74-.7h7.33c1.89,0,2.83-.65,2.83-1.96v-.52c0-1.16-.68-2.05-2.05-2.66l-4.75-2.27c-1.48-.7-2.56-1.47-3.23-2.31-.67-.84-1-1.95-1-3.32,0-3.75,2.08-5.63,6.24-5.63h7.24c.46,0,.7.25.7.74v2.14c0,.5-.23.74-.7.74h-6.37c-.87,0-1.54.15-2.01.46-.47.3-.7.71-.7,1.2v.48c0,.93.74,1.75,2.22,2.44l4.8,2.44c1.51.67,2.55,1.46,3.12,2.38.57.92.85,2.1.85,3.55,0,3.78-2.17,5.67-6.5,5.67Z"/>
    <path class="st2" d="M766.67,236.52h-2.75c-.49,0-.74-.25-.74-.74v-26.91c0-.49.25-.74.74-.74h2.75c.49,0,.74.25.74.74v1.57h.17c.7-1.54,2.17-2.31,4.41-2.31h2.22c2.09,0,3.7.58,4.82,1.75,1.12,1.16,1.68,2.83,1.68,5.02v8.72c0,2.15-.56,3.82-1.68,5-1.12,1.18-2.73,1.77-4.82,1.77h-2.22c-2.24,0-3.71-.77-4.41-2.31h-.17v7.72c0,.49-.25.74-.74.74ZM770.98,226.66h2.31c2.09,0,3.14-1.08,3.14-3.23v-8.38c0-2.15-1.05-3.23-3.14-3.23h-2.31c-2.38,0-3.58,1.24-3.58,3.71v7.42c0,2.47,1.19,3.71,3.58,3.71Z"/>
    <path class="st2" d="M799.16,230.37h-3.84c-2.15,0-3.82-.6-5-1.79-1.18-1.19-1.77-2.85-1.77-4.97v-8.72c0-2.15.59-3.82,1.77-5,1.18-1.18,2.84-1.77,5-1.77h3.84c2.12,0,3.79.59,4.99,1.77s1.81,2.84,1.81,5v8.72c0,2.12-.6,3.78-1.81,4.97s-2.87,1.79-4.99,1.79ZM795.93,226.66h2.66c2.09,0,3.14-1.06,3.14-3.18v-8.46c0-2.12-1.05-3.18-3.14-3.18h-2.66c-1.11,0-1.9.25-2.4.76-.5.51-.74,1.32-.74,2.42v8.46c0,1.11.25,1.91.74,2.42.49.51,1.29.76,2.4.76Z"/>
    <path class="st2" d="M817.7,230.37h-2.75c-.49,0-.74-.25-.74-.74v-20.76c0-.49.25-.74.74-.74h2.75c.49,0,.74.25.74.74v1.57h.17c.7-1.54,2.17-2.31,4.41-2.31h1.92c2.12,0,3.75.58,4.89,1.75,1.13,1.16,1.7,2.83,1.7,5.02v14.74c0,.49-.26.74-.79.74h-2.75c-.49,0-.74-.25-.74-.74v-14.57c0-2.15-1.06-3.23-3.18-3.23h-2.05c-2.38,0-3.58,1.24-3.58,3.71v14.09c0,.49-.25.74-.74.74Z"/>
    <path class="st2" d="M847.93,230.37h-8.03c-.5,0-.74-.25-.74-.74v-2.14c0-.46.25-.7.74-.7h7.33c1.89,0,2.83-.65,2.83-1.96v-.52c0-1.16-.68-2.05-2.05-2.66l-4.75-2.27c-1.48-.7-2.56-1.47-3.23-2.31-.67-.84-1-1.95-1-3.32,0-3.75,2.08-5.63,6.24-5.63h7.24c.46,0,.7.25.7.74v2.14c0,.5-.23.74-.7.74h-6.37c-.87,0-1.54.15-2.01.46-.47.3-.7.71-.7,1.2v.48c0,.93.74,1.75,2.22,2.44l4.8,2.44c1.51.67,2.55,1.46,3.12,2.38.57.92.85,2.1.85,3.55,0,3.78-2.17,5.67-6.5,5.67Z"/>
    <path class="st2" d="M862.41,204.41v-3.97c0-.46.23-.7.7-.7h2.84c.46,0,.7.23.7.7v3.97c0,.5-.23.74-.7.74h-2.84c-.47,0-.7-.25-.7-.74ZM862.41,229.63v-20.76c0-.49.23-.74.7-.74h2.79c.49,0,.74.25.74.74v20.76c0,.29-.05.49-.15.59-.1.1-.28.15-.54.15h-2.79c-.5,0-.74-.25-.74-.74Z"/>
    <path class="st2" d="M875.59,229.63v-29.18c0-.49.25-.74.74-.74h2.75c.49,0,.74.25.74.74v9.86h.17c.73-1.57,2.2-2.36,4.41-2.36h1.92c2.15,0,3.82.59,5.02,1.77s1.79,2.83,1.79,4.95v8.94c0,2.12-.6,3.78-1.79,4.97s-2.86,1.79-5.02,1.79h-9.99c-.49,0-.74-.25-.74-.74ZM880.3,226.66h5.41c2.09,0,3.14-1.08,3.14-3.23v-8.55c0-2.15-1.05-3.23-3.14-3.23h-2.31c-2.38,0-3.58,1.22-3.58,3.66v10.86c0,.32.16.48.48.48Z"/>
    <path class="st2" d="M901.63,204.41v-3.97c0-.46.23-.7.7-.7h2.84c.46,0,.7.23.7.7v3.97c0,.5-.23.74-.7.74h-2.84c-.47,0-.7-.25-.7-.74ZM901.63,229.63v-20.76c0-.49.23-.74.7-.74h2.79c.49,0,.74.25.74.74v20.76c0,.29-.05.49-.15.59-.1.1-.28.15-.54.15h-2.79c-.5,0-.74-.25-.74-.74Z"/>
    <path class="st2" d="M918.51,230.37h-2.75c-.5,0-.74-.25-.74-.74v-29.18c0-.49.25-.74.74-.74h2.75c.49,0,.74.25.74.74v29.18c0,.49-.25.74-.74.74Z"/>
    <path class="st2" d="M928.41,204.41v-3.97c0-.46.23-.7.7-.7h2.84c.46,0,.7.23.7.7v3.97c0,.5-.23.74-.7.74h-2.84c-.47,0-.7-.25-.7-.74ZM928.41,229.63v-20.76c0-.49.23-.74.7-.74h2.79c.49,0,.74.25.74.74v20.76c0,.29-.05.49-.15.59-.1.1-.28.15-.54.15h-2.79c-.5,0-.74-.25-.74-.74Z"/>
    <path class="st2" d="M942.24,211.83h-2.09c-.29,0-.49-.05-.59-.15-.1-.1-.15-.28-.15-.55v-2.27c0-.49.25-.74.74-.74h2.09c.29,0,.44-.14.44-.44v-3.93c0-.49.26-.74.79-.74h2.75c.49,0,.74.25.74.74v3.93c0,.29.16.44.48.44h4.06c.52,0,.79.25.79.74v2.27c0,.47-.26.7-.79.7h-4.06c-.32,0-.48.15-.48.44v11.21c0,2.12,1.09,3.18,3.27,3.18h1.7c.52,0,.79.25.79.74v2.27c0,.47-.26.7-.79.7h-2.36c-2.15,0-3.84-.58-5.06-1.75-1.22-1.16-1.83-2.81-1.83-4.93v-11.43c0-.29-.15-.44-.44-.44Z"/>
    <path class="st2" d="M962.74,237.43h-2.31c-.5,0-.74-.25-.74-.74v-2.22c0-.52.25-.79.74-.79h1c1.77,0,3-.35,3.69-1.05.68-.7,1.26-1.85,1.72-3.45h-1.75c-.44,0-.74-.25-.92-.74l-5.8-19.59c-.12-.49.07-.74.57-.74h2.92c.46,0,.76.25.87.74l4.75,17.1h.17l4.75-17.1c.09-.49.38-.74.87-.74h2.79c.55,0,.79.26.7.79l-5.98,20.98c-.67,2.44-1.61,4.31-2.84,5.61-1.22,1.29-2.97,1.94-5.23,1.94Z"/>
  </g>
  <path class="st3" d="M237.99,162.87c-10.78,0-19.52,8.74-19.52,19.52,0,10.78,8.74,19.52,19.52,19.52,10.78,0,19.52-8.74,19.52-19.52,0-10.78-8.74-19.52-19.52-19.52ZM197.2,167.38c-34.62,0-62.99,28.38-62.99,62.99h29.9c0-18.46,14.63-33.09,33.09-33.09v-29.9Z"/>
  <path class="st2" d="M237.73,100.26c-10.68.14-19.26,8.84-19.26,19.52,0,10.78,8.74,19.52,19.52,19.52,10.78,0,19.52-8.74,19.52-19.52,0-10.78-8.74-19.52-19.52-19.52-.09,0-.17,0-.26,0ZM197.2,105.62c-68.73,0-124.75,56.02-124.75,124.75h29.89c0-52.57,42.28-94.85,94.85-94.85v-29.89Z"/>
  <path class="st1" d="M237.73,37.64c-10.68.14-19.26,8.84-19.26,19.52,0,10.78,8.74,19.52,19.52,19.52,10.78,0,19.52-8.74,19.52-19.52,0-10.78-8.74-19.52-19.52-19.52-.09,0-.17,0-.26,0ZM197.2,43.86c-102.84,0-186.51,83.67-186.51,186.51h29.89c0-86.68,69.94-156.62,156.62-156.62v-29.89Z"/>
</svg>